<?xml version="1.0" encoding="UTF-8"?>
<svg version="1.1" xmlns="http://www.w3.org/2000/svg" width="1200" height="1200">
<path d="M0 0 C396 0 792 0 1200 0 C1200 396 1200 792 1200 1200 C804 1200 408 1200 0 1200 C0 804 0 408 0 0 Z " fill="#FEFEFE" transform="translate(0,0)"/>
<path d="M0 0 C0.0093457 1.07894531 0.01869141 2.15789062 0.02832031 3.26953125 C0.06843208 7.30297938 0.13424773 11.33568163 0.20751953 15.36865234 C0.23560703 17.10846314 0.25688194 18.84839865 0.27099609 20.58837891 C0.29259653 23.1012297 0.33932986 25.61260033 0.390625 28.125 C0.39185364 28.89303955 0.39308228 29.6610791 0.39434814 30.45239258 C0.55808865 36.59859915 2.1483289 42.05623593 6.51763916 46.56665039 C11.05908686 50.43985773 13.82135547 51.30403121 19.62109375 51.2109375 C24.86931968 50.74557757 28.13700348 48.86299652 31.8125 45.1875 C35.69783665 39.52600946 36.31118427 34.27655516 36.4140625 27.5390625 C36.43342865 26.74849457 36.4527948 25.95792664 36.4727478 25.1434021 C36.53216053 22.63737517 36.57877427 20.13130135 36.625 17.625 C36.66321513 15.91794957 36.70226889 14.21091769 36.7421875 12.50390625 C36.83783011 8.33608956 36.92200115 4.1681827 37 0 C51.81855051 2.83530337 63.9523102 10.84446903 73.12890625 22.765625 C81.69998715 35.72406264 85.31381338 47.66670106 85.30078125 63.0859375 C85.30506638 64.22350494 85.3093515 65.36107239 85.31376648 66.53311157 C85.31948377 68.92831764 85.32002934 71.32354107 85.31567383 73.71875 C85.31251556 77.35707609 85.3360012 80.99458676 85.36132812 84.6328125 C85.36360174 86.97135315 85.36430432 89.30989597 85.36328125 91.6484375 C85.372491 92.72274017 85.38170074 93.79704285 85.39118958 94.90390015 C85.33255123 104.61188754 83.28745698 113.02245767 78.875 121.6875 C75.86601712 127.85191361 73.36499157 134.12570948 71 140.5625 C66.53181007 152.70064258 61.81234349 164.72972068 57.02172852 176.7434082 C53.86757756 184.66561919 50.75608883 192.59834534 47.7719574 200.58644104 C46.35053376 204.38995079 44.91331294 208.18741789 43.4758606 211.9848938 C42.78687948 213.81961861 42.10602195 215.65741575 41.43356323 217.4982605 C40.49551192 220.06426416 39.53018193 222.6184178 38.55859375 225.171875 C38.28720581 225.93772415 38.01581787 226.7035733 37.73620605 227.49263 C36.35977338 231.03193003 35.53422523 232.72981919 32.08813477 234.47265625 C29.34077977 234.94180692 26.81432302 235.25787579 24.03125 235.265625 C22.67966797 235.26949219 22.67966797 235.26949219 21.30078125 235.2734375 C20.37652344 235.26570312 19.45226562 235.25796875 18.5 235.25 C17.57574219 235.25773438 16.65148437 235.26546875 15.69921875 235.2734375 C14.79816406 235.27085937 13.89710938 235.26828125 12.96875 235.265625 C12.15857422 235.26336914 11.34839844 235.26111328 10.51367188 235.25878906 C7.1767334 234.91524256 5.00798518 234.5859469 2 233 C0.15558087 230.15603952 -0.91993889 227.08011992 -2.06640625 223.90234375 C-2.42226303 222.97347855 -2.77811981 222.04461334 -3.14476013 221.08760071 C-4.30512462 218.0451072 -5.43355732 214.99177588 -6.5625 211.9375 C-7.36029252 209.8301682 -8.16043952 207.72372632 -8.96289062 205.61816406 C-10.57102973 201.39273564 -12.1687218 197.1635962 -13.75830078 192.93115234 C-16.49187788 185.67169106 -19.33661192 178.45822056 -22.20449829 171.25100708 C-26.75665493 159.80050035 -31.2013864 148.3098233 -35.59765625 136.79858398 C-38.23091948 129.92727606 -40.95425657 123.10126509 -43.84521484 116.33398438 C-47.35895696 108.01717462 -48.30849496 101.37421792 -48.30078125 92.3984375 C-48.30506638 91.28497955 -48.3093515 90.17152161 -48.31376648 89.02432251 C-48.31949488 86.67263466 -48.32002106 84.32092909 -48.31567383 81.96923828 C-48.31252875 78.40756199 -48.33594113 74.84672913 -48.36132812 71.28515625 C-48.42539178 48.80651452 -45.25189108 31.43229476 -28.83984375 14.8125 C-21.2323789 7.72829993 -10.82618897 -0.33085128 0 0 Z " fill="#0101FD" transform="translate(583,399)"/>
<path d="M0 0 C0.91112549 -0.01144043 1.82225098 -0.02288086 2.76098633 -0.03466797 C4.16900513 -0.01944092 4.16900513 -0.01944092 5.60546875 -0.00390625 C6.58088623 0.00366699 7.55630371 0.01124023 8.5612793 0.01904297 C15.60371546 0.18042354 21.56124342 0.94252249 27.79296875 4.43359375 C28.56253906 4.85769531 29.33210937 5.28179687 30.125 5.71875 C40.82682657 12.2638194 48.77466144 21.27906542 52.3840332 33.42211914 C54.21696419 41.06896716 54.13072641 48.83199573 54.10864258 56.6472168 C54.1054701 58.99509636 54.12905778 61.34172731 54.15429688 63.68945312 C54.18960458 71.43731009 53.94487874 78.2511898 50.79296875 85.43359375 C50.02649881 87.45784277 49.26531019 89.48409513 48.5078125 91.51171875 C47.5850556 93.90351275 46.65905359 96.29405634 45.73046875 98.68359375 C45.35704346 99.64655365 45.35704346 99.64655365 44.97607422 100.62896729 C39.83114443 113.88826219 34.56869742 127.10090953 29.29296875 140.30859375 C28.90051971 141.29234985 28.50807068 142.27610596 28.10372925 143.28967285 C26.97093852 146.12753249 25.83554075 148.964334 24.69921875 151.80078125 C24.36418839 152.64033356 24.02915802 153.47988586 23.68397522 154.34487915 C17.5124733 169.7140892 17.5124733 169.7140892 15.79296875 171.43359375 C14.2312413 171.52044978 12.66567531 171.54061594 11.1015625 171.53125 C10.15732422 171.52802734 9.21308594 171.52480469 8.24023438 171.52148438 C7.24701172 171.51310547 6.25378906 171.50472656 5.23046875 171.49609375 C4.23337891 171.49158203 3.23628906 171.48707031 2.20898438 171.48242188 C-0.26307974 171.47059382 -2.73502643 171.45411224 -5.20703125 171.43359375 C-7.85984425 167.00104545 -9.93075749 162.85228155 -11.58203125 157.93359375 C-13.25237339 153.07542669 -15.01652472 148.2850402 -16.9296875 143.515625 C-17.31380043 142.55696281 -17.31380043 142.55696281 -17.70567322 141.57893372 C-19.37516023 137.43362717 -21.09739739 133.31322651 -22.85009766 129.20248413 C-24.04319402 126.39267526 -25.21249603 123.57327349 -26.37866211 120.75219727 C-26.97817345 119.31806887 -27.58842659 117.88838881 -28.20874023 116.46313477 C-34.04066277 103.01998156 -34.04066277 103.01998156 -32.484375 97.453125 C-31.76339407 95.76316553 -30.99827533 94.0918185 -30.20703125 92.43359375 C-29.46236082 90.52454791 -28.71855491 88.61513042 -27.98744202 86.70085144 C-26.3181454 82.35926179 -24.56030365 78.05240433 -22.82275391 73.73779297 C-21.95777311 71.58568994 -21.09794918 69.43157339 -20.23828125 67.27734375 C-19.84908508 66.31906677 -19.84908508 66.31906677 -19.45202637 65.34143066 C-15.83987847 56.28577878 -13.76087234 48.18841779 -13.6953125 38.39453125 C-13.6773613 37.38766266 -13.6594101 36.38079407 -13.64091492 35.34341431 C-13.58724995 32.16518189 -13.55305772 28.98709579 -13.51953125 25.80859375 C-13.48631946 23.63800066 -13.4518263 21.46742677 -13.41601562 19.296875 C-13.33154945 14.009246 -13.26301667 8.72159697 -13.20703125 3.43359375 C-4.78467593 0.05760081 -4.78467593 0.05760081 0 0 Z " fill="#0101FD" transform="translate(723.20703125,458.56640625)"/>
<path d="M0 0 C0.96421875 -0.020625 1.9284375 -0.04125 2.921875 -0.0625 C3.870625 -0.06765625 4.819375 -0.0728125 5.796875 -0.078125 C6.65120117 -0.0874707 7.50552734 -0.09681641 8.38574219 -0.10644531 C12.32152691 0.38334719 15.57469909 1.76398962 19.25 3.25 C19.25410889 4.5596875 19.25821777 5.869375 19.26245117 7.21875 C19.28449328 12.15435263 19.33903611 17.08918607 19.40258789 22.02441406 C19.42555176 24.14608293 19.44011193 26.26786229 19.44555664 28.38964844 C19.48612727 41.60943249 20.34158763 52.93381461 25.25 65.25 C25.75184572 66.55833002 26.25256114 67.8670941 26.75219727 69.17626953 C28.26141553 73.07704879 29.84238134 76.94621516 31.4375 80.8125 C32.24202793 82.77176213 33.0445287 84.73178844 33.84284973 86.69358826 C34.55777629 88.44928447 35.2790302 90.2024004 36.00073242 91.95532227 C36.61911987 93.58618774 36.61911987 93.58618774 37.25 95.25 C37.68610596 96.39839355 38.12221191 97.54678711 38.5715332 98.72998047 C39.42382425 103.1518345 38.57566122 105.1710588 36.75 109.25390625 C36.17662646 110.57678775 35.60372272 111.89987296 35.03125 113.22314453 C34.73347656 113.89178528 34.43570313 114.56042603 34.12890625 115.24932861 C32.75622037 118.37400018 31.50931232 121.54269965 30.25 124.71484375 C29.75814209 125.93937256 29.26628418 127.16390137 28.75952148 128.42553711 C24.53593321 138.94879054 20.32372709 149.46867255 16.43359375 160.12109375 C12.68418014 170.03290993 12.68418014 170.03290993 10.25 171.25 C6.94411361 171.54034132 3.62966735 171.52777738 0.3125 171.5625 C-0.60724609 171.59150391 -1.52699219 171.62050781 -2.47460938 171.65039062 C-3.80008789 171.66295898 -3.80008789 171.66295898 -5.15234375 171.67578125 C-6.36651978 171.69765503 -6.36651978 171.69765503 -7.60522461 171.7199707 C-9.75 171.25 -9.75 171.25 -11.35620117 169.66748047 C-13.12022991 166.60785312 -14.40676596 163.43960733 -15.6484375 160.14453125 C-15.91966431 159.44063766 -16.19089111 158.73674408 -16.47033691 158.01152039 C-17.05523891 156.49149027 -17.63727362 154.97035435 -18.21673584 153.44824219 C-19.4507242 150.20691856 -20.69842555 146.97092781 -21.94509888 143.73446655 C-22.5892968 142.06143371 -23.232742 140.38811085 -23.87545776 138.71450806 C-26.54065683 131.77645621 -29.24454178 124.85426566 -31.97436523 117.94140625 C-33.07649367 115.15015279 -34.16624052 112.35453685 -35.24633789 109.5546875 C-37.41531425 103.95729411 -39.57314931 98.41988256 -42.33984375 93.08203125 C-48.02733396 81.78622703 -48.45330706 71.19636177 -48.4375 58.75 C-48.43730865 57.92480865 -48.43711731 57.09961731 -48.43692017 56.24942017 C-48.35731355 42.13374384 -46.9954388 30.1454197 -38.75 18.25 C-38.13125 17.3425 -37.5125 16.435 -36.875 15.5 C-26.75477924 4.78447213 -14.38905516 0.07573187 0 0 Z " fill="#0101FD" transform="translate(473.75,458.75)"/>
<path d="M0 0 C9.59900117 7.84195857 16.46570386 19.40238095 18.17630005 31.73245239 C18.35184562 35.1664068 18.38280498 38.56577767 18.34375 42.00390625 C18.34616196 43.2411998 18.34857391 44.47849335 18.35105896 45.75328064 C18.35008717 48.34230793 18.33685544 50.93135775 18.31176758 53.52026367 C18.27715736 57.49012952 18.29122192 61.45780221 18.31054688 65.42773438 C18.30365587 67.95313448 18.29399027 70.47852888 18.28125 73.00390625 C18.2886898 74.78197411 18.2886898 74.78197411 18.29627991 76.59596252 C18.28044357 77.69488327 18.26460724 78.79380402 18.24829102 79.92602539 C18.24209244 80.89053116 18.23589386 81.85503693 18.22950745 82.84877014 C17.56919246 86.13002407 16.26469673 87.30948844 13.71484375 89.40625 C10.57613187 90.97560594 8.17628553 90.75826103 4.71484375 90.40625 C1.77734375 88.53125 1.77734375 88.53125 -0.28515625 85.40625 C-0.6872829 82.02941725 -0.58070864 78.78868292 -0.28515625 75.40625 C-0.94515625 75.40625 -1.60515625 75.40625 -2.28515625 75.40625 C-2.52363281 75.9940625 -2.76210938 76.581875 -3.0078125 77.1875 C-6.57210923 83.37869432 -15.15623679 87.57106601 -21.7734375 89.7421875 C-35.84407928 92.40293177 -49.60823344 91.71462373 -61.75390625 83.796875 C-72.39542691 76.06403665 -80.16193837 65.63379135 -82.66015625 52.53125 C-84.83069066 35.39074112 -82.71991868 21.79144373 -72.38671875 7.84375 C-54.15745071 -14.38375899 -23.00065329 -16.04148127 0 0 Z " fill="#03033D" transform="translate(583.28515625,758.59375)"/>
<path d="M0 0 C0.88816406 0.39058594 1.77632812 0.78117187 2.69140625 1.18359375 C15.05847908 7.2553277 24.08773861 17.61631037 28.875 30.5 C32.33811746 43.66814125 30.61774225 57.93199839 24.4921875 69.9609375 C17.21203505 82.32026607 5.87682336 90.34293103 -8 94 C-11.25425992 94.30235 -14.48327495 94.33381929 -17.75 94.3125 C-18.64380371 94.30686035 -19.53760742 94.3012207 -20.45849609 94.29541016 C-33.77833387 94.04978233 -44.30053511 89.07806766 -54.12109375 80.03125 C-64.81331591 68.47209091 -68.01329973 55.17764284 -67.4453125 39.859375 C-66.70313036 29.1868788 -62.10495647 20.7925329 -55 13 C-54.43152344 12.36320312 -53.86304688 11.72640625 -53.27734375 11.0703125 C-40.0345347 -2.98697456 -17.89758394 -8.04626423 0 0 Z " fill="#0101FD" transform="translate(620,283)"/>
<path d="M0 0 C1.99648731 1.46855212 3.89647164 3.00155255 5.78515625 4.60546875 C6.77515625 5.38921875 7.76515625 6.17296875 8.78515625 6.98046875 C9.44515625 7.51671875 10.10515625 8.05296875 10.78515625 8.60546875 C11.26984375 8.1465625 11.75453125 7.68765625 12.25390625 7.21484375 C22.11215034 -1.80924122 31.63955126 -4.86544286 45.0625 -4.640625 C54.76710286 -3.99908252 63.25373195 -0.489084 69.796875 6.8671875 C77.51682372 17.17663684 78.23794162 27.28914425 78.1484375 39.87890625 C78.14791771 41.33476765 78.14844001 42.79062976 78.14994812 44.24649048 C78.14985901 47.2772284 78.13954798 50.30769693 78.12133789 53.33837891 C78.09853039 57.21872268 78.09813504 61.09867811 78.10485554 64.97907066 C78.10819693 67.97652633 78.10156426 70.97389365 78.0917263 73.97133255 C78.08788608 75.40264041 78.08672119 76.8339581 78.08831215 78.26527023 C78.08868346 80.26069101 78.07457236 82.2560986 78.05981445 84.25146484 C78.05520706 85.38490326 78.05059967 86.51834167 78.04585266 87.68612671 C77.78924059 90.5597313 77.33976274 92.2042128 75.78515625 94.60546875 C72.34715233 97.15213832 68.9340935 97.11498736 64.78515625 96.60546875 C61.91015625 94.16796875 61.91015625 94.16796875 59.78515625 91.60546875 C59.45515625 91.27546875 59.12515625 90.94546875 58.78515625 90.60546875 C58.68774424 88.65358938 58.65999487 86.69820493 58.65917969 84.74389648 C58.65537292 83.48846542 58.65156616 82.23303436 58.64764404 80.93955994 C58.64745018 80.26377333 58.64725632 79.58798672 58.64705658 78.89172173 C58.64364499 76.05113739 58.62227817 73.21078272 58.60182571 70.37027836 C58.5638242 65.07942459 58.53253088 59.78880842 58.53466797 54.49780273 C58.53545869 50.81991815 58.51193205 47.14286405 58.47278595 43.46519661 C58.46237094 42.06793014 58.46076867 40.67056725 58.46843719 39.273283 C58.50843328 31.17105188 58.36666419 24.84525973 52.78515625 18.60546875 C47.83401071 13.9637698 42.21342115 13.08369583 35.63671875 13.234375 C30.07490979 13.95817206 25.70411813 16.24578836 22.15234375 20.61328125 C18.94750291 25.5762062 17.66278334 29.52330284 17.64331055 35.46630859 C17.63627609 36.67120941 17.62924164 37.87611023 17.62199402 39.11752319 C17.6157476 41.07222031 17.6157476 41.07222031 17.609375 43.06640625 C17.59894877 44.41778341 17.58752588 45.76915321 17.57514954 47.12051392 C17.52275887 52.85732735 17.47471008 58.59400712 17.45922852 64.33105469 C17.44913211 67.84258511 17.41976909 71.35350627 17.37790871 74.86479568 C17.35965672 76.84829145 17.36224411 78.83194364 17.36515808 80.81552124 C17.34866714 82.02672638 17.33217621 83.23793152 17.31518555 84.48583984 C17.30638618 86.08110001 17.30638618 86.08110001 17.29740906 87.70858765 C16.66046375 91.3106271 15.29316643 92.99177283 12.78515625 95.60546875 C9.68466697 97.15571339 7.20621407 96.8953889 3.78515625 96.60546875 C1.03186604 94.8098447 -0.74111836 93.55291953 -2.21484375 90.60546875 C-2.31461015 88.64633719 -2.35043105 86.68382814 -2.35668945 84.72216797 C-2.36372391 83.48683319 -2.37075836 82.25149841 -2.37800598 80.97872925 C-2.37982187 80.3162405 -2.38163776 79.65375175 -2.38350868 78.97118759 C-2.39068209 76.89362284 -2.40635776 74.81629321 -2.42485046 72.73880005 C-2.47725838 66.83110916 -2.52522731 60.923543 -2.54077148 55.015625 C-2.55090365 51.40150244 -2.58036483 47.78796611 -2.62209129 44.17407608 C-2.63433873 42.80193663 -2.63953405 41.4297141 -2.63729286 40.05752182 C-2.62758497 32.16889307 -2.84449186 26.30139836 -7.21484375 19.60546875 C-11.70809191 15.22743208 -16.27144511 13.32100274 -22.52734375 13.23046875 C-27.90202165 13.36050128 -31.94967265 14.24361992 -36.21484375 17.60546875 C-41.13427571 22.9438043 -43.32777026 27.14428398 -43.37255859 34.46630859 C-43.38795181 36.27365982 -43.38795181 36.27365982 -43.40365601 38.11752319 C-43.41095734 39.4206546 -43.41825867 40.72378601 -43.42578125 42.06640625 C-43.43874775 43.41778377 -43.45256415 44.76915338 -43.4671936 46.12051392 C-43.52872241 51.85728896 -43.58282902 57.59404126 -43.61621094 63.33105469 C-43.63719126 66.84250504 -43.67251946 70.35356745 -43.71696854 73.86479568 C-43.73795725 75.84828704 -43.74317156 77.83192506 -43.74813843 79.81552124 C-43.7647049 81.02672638 -43.78127136 82.23793152 -43.79833984 83.48583984 C-43.8064267 84.54934662 -43.81451355 85.61285339 -43.82284546 86.70858765 C-44.2708654 90.01947067 -45.27486047 91.91047627 -47.21484375 94.60546875 C-50.63855735 97.17325395 -54.0633858 97.18812952 -58.21484375 96.60546875 C-61.64021804 93.43331761 -63.46131379 91.23831128 -63.85649109 86.5388031 C-63.88899481 84.97076975 -63.89438854 83.40202149 -63.87768555 81.83374023 C-63.88805344 80.97282776 -63.89842133 80.11191528 -63.90910339 79.22491455 C-63.93611145 76.3916396 -63.92652682 73.559919 -63.9140625 70.7265625 C-63.91997296 68.75170969 -63.92722033 66.77686047 -63.93574524 64.80201721 C-63.9476143 60.66868379 -63.94093491 56.53588926 -63.92163086 52.40258789 C-63.89872363 47.10704843 -63.92554928 41.81311128 -63.96669292 36.51772976 C-63.99226954 32.44184982 -63.98969181 28.36635352 -63.97879982 24.29042244 C-63.97731345 22.33798834 -63.98499941 20.3855248 -64.0020504 18.4331646 C-64.02202256 15.70372138 -64.00363883 12.97711522 -63.9753418 10.24780273 C-63.98905823 9.44298965 -64.00277466 8.63817657 -64.01690674 7.80897522 C-63.90657956 2.48246672 -63.90657956 2.48246672 -61.93387794 -0.01856804 C-59.43242655 -2.20618267 -57.4895793 -3.34301833 -54.21484375 -3.95703125 C-50.42262168 -3.24598961 -48.21903577 -1.78422944 -45.21484375 0.60546875 C-44.22484375 2.09046875 -44.22484375 2.09046875 -43.21484375 3.60546875 C-42.57417969 3.19554687 -41.93351562 2.785625 -41.2734375 2.36328125 C-28.93727086 -5.32154387 -13.05735231 -8.2212959 0 0 Z " fill="#03033D" transform="translate(157.21484375,752.39453125)"/>
<path d="M0 0 C9.38540976 7.55800484 14.88860795 18.21187396 16.24804688 30.18457031 C16.42216194 32.48034592 16.51396769 34.76078736 16.5625 37.0625 C16.58932861 37.78880615 16.61615723 38.5151123 16.64379883 39.26342773 C16.6184364 42.81292054 16.38749294 44.59227821 13.90925598 47.19989014 C10.27831129 49.44654681 8.07596893 49.4838947 3.82299805 49.45410156 C3.12001083 49.45468567 2.41702362 49.45526978 1.69273376 49.45587158 C-0.61811661 49.45309707 -2.9276578 49.4220379 -5.23828125 49.390625 C-6.8453857 49.38316029 -8.45249927 49.37746844 -10.05961609 49.37347412 C-14.27993099 49.35823573 -18.49969116 49.31896996 -22.7197876 49.2746582 C-27.02991228 49.23366641 -31.340127 49.2154548 -35.65039062 49.1953125 C-44.10051437 49.15247346 -52.55018809 49.08424453 -61 49 C-60.37914924 50.7707046 -59.75245477 52.53936099 -59.12329102 54.30712891 C-58.77492691 55.29226471 -58.42656281 56.27740051 -58.06764221 57.29238892 C-55.24168322 64.45920735 -49.4716211 69.64102852 -42.6875 73.0625 C-31.70606154 77.36024959 -21.2650048 76.50518983 -10.50390625 71.94140625 C-7.01598504 70.32673638 -7.01598504 70.32673638 -4 68 C0.78737606 67.3076109 4.02748255 67.32519197 8.0625 70.125 C10 73 10 73 10.875 75.875 C9.41492931 81.08953817 5.50004645 83.28859561 1 86 C-12.95431634 92.85382457 -30.6414108 95.10779045 -45.75 90.4375 C-58.78980568 85.04695442 -69.65593626 76.39942532 -75.16015625 63.22265625 C-80.22030674 49.71078487 -80.99981853 34.63002618 -75.84765625 20.9375 C-70.14993559 8.56350278 -61.11338319 -0.69744609 -48.51171875 -6.05859375 C-32.01023085 -11.85491471 -14.49719629 -9.75640698 0 0 Z " fill="#05053F" transform="translate(832,757)"/>
<path d="M0 0 C6.04029297 4.75586286 9.51278217 10.73140999 12.9140625 17.54296875 C13.27757812 18.26097656 13.64109375 18.97898437 14.015625 19.71875 C16.11883524 24.78021389 16.24284677 29.94415737 16.3515625 35.35546875 C16.37404053 36.09756592 16.39651855 36.83966309 16.41967773 37.60424805 C16.40388451 41.16339341 16.22415736 43.14372957 14.01171875 45.9921875 C10.23889133 48.78141 7.85395516 48.66477068 3.16943359 48.65649414 C2.13024025 48.65671318 2.13024025 48.65671318 1.0700531 48.65693665 C-1.22416291 48.65623893 -3.51829814 48.64845317 -5.8125 48.640625 C-7.40147863 48.63876032 -8.99045784 48.63733665 -10.57943726 48.63633728 C-14.76503075 48.63251606 -18.95058963 48.62268914 -23.13616943 48.6116333 C-27.40587903 48.60141069 -31.6755942 48.59683784 -35.9453125 48.59179688 C-44.32553673 48.58106653 -52.70573281 48.56399483 -61.0859375 48.54296875 C-60.47252455 50.29735619 -59.85280501 52.04953932 -59.23046875 53.80078125 C-58.88604736 54.7767627 -58.54162598 55.75274414 -58.18676758 56.75830078 C-55.57437458 63.36662959 -51.43121934 68.28032383 -45.0859375 71.54296875 C-33.68663253 76.15697314 -24.0874319 77.26873957 -12.58203125 72.69921875 C-10.39570808 71.68646185 -8.42838026 70.58182129 -6.3984375 69.29296875 C-2.01097141 66.97506214 0.00817958 66.75169731 4.9140625 67.54296875 C7.51394283 69.3376852 8.2671974 70.674236 9.9140625 73.54296875 C10.2890625 76.54296875 10.2890625 76.54296875 8.9140625 79.54296875 C3.48051217 84.45147939 -3.25756624 87.15466719 -10.0859375 89.54296875 C-10.93414062 89.90132812 -11.78234375 90.2596875 -12.65625 90.62890625 C-17.69314376 91.97131301 -22.58253875 91.91156419 -27.7734375 91.91796875 C-28.79888672 91.94246094 -29.82433594 91.96695313 -30.88085938 91.9921875 C-44.26131744 92.04290307 -55.95149471 86.50071353 -65.7734375 77.54296875 C-76.23572224 66.5612798 -79.47993823 53.12064049 -79.45727539 38.41699219 C-79.13121003 25.34731847 -74.27418355 13.82589649 -65.3359375 4.29296875 C-47.22547274 -12.78261231 -20.18984366 -14.10264361 0 0 Z " fill="#04043F" transform="translate(340.0859375,757.45703125)"/>
<path d="M0 0 C2.75329021 1.79562405 4.52627461 3.05254922 6 6 C6.11786691 7.48012824 6.17692938 8.96516466 6.20532227 10.44970703 C6.22526749 11.37051056 6.24521271 12.29131409 6.26576233 13.24002075 C6.28247482 14.23589203 6.29918732 15.23176331 6.31640625 16.2578125 C6.33718735 17.27600067 6.35796844 18.29418884 6.37937927 19.3432312 C6.44489466 22.60375055 6.50376902 25.86435206 6.5625 29.125 C6.60568332 31.33203983 6.64929755 33.53907128 6.69335938 35.74609375 C6.80057805 41.16397501 6.90234074 46.58193846 7 52 C7.74693115 51.51716553 8.4938623 51.03433105 9.26342773 50.53686523 C10.24770752 49.90466064 11.2319873 49.27245605 12.24609375 48.62109375 C13.2198999 47.99388428 14.19370605 47.3666748 15.19702148 46.72045898 C25.27418694 40.53512801 37.37099102 40.53106038 48.7734375 42.7265625 C55.11133794 44.54372277 60.79887743 46.91752241 66 51 C66.59167969 51.45632813 67.18335938 51.91265625 67.79296875 52.3828125 C74.20195628 58.01366689 79.35438503 67.57903296 81 76 C81.10596461 77.98950896 81.15849469 79.98212231 81.17700195 81.97436523 C81.19625481 83.78160316 81.19625481 83.78160316 81.21589661 85.62535095 C81.22328354 86.92332108 81.23067047 88.2212912 81.23828125 89.55859375 C81.24235678 90.22167101 81.2464323 90.88474827 81.25063133 91.56791878 C81.27144474 95.07497974 81.28576903 98.58200208 81.29516602 102.08911133 C81.30624502 105.70513571 81.34067444 109.32054721 81.38033772 112.93635464 C81.4065063 115.72366971 81.41485779 118.51083835 81.41844749 121.29826546 C81.42566782 123.27750034 81.45209907 125.25663506 81.47883606 127.23570251 C81.47591049 128.44367996 81.47298492 129.65165741 81.4699707 130.89624023 C81.47583694 131.9567308 81.48170319 133.01722137 81.48774719 134.10984802 C80.87827473 137.72128461 79.51196166 139.38568623 77 142 C74.09704195 143.45147903 72.22738221 143.37239025 69 143 C66.07062346 141.18689858 63.56352051 139.12704101 62 136 C61.90084258 134.22992775 61.86444221 132.45618587 61.8581543 130.68334961 C61.84760262 129.01537575 61.84760262 129.01537575 61.83683777 127.31370544 C61.83267349 126.10545609 61.82850922 124.89720673 61.82421875 123.65234375 C61.80100981 121.10220538 61.77689204 118.55207516 61.75195312 116.00195312 C61.71565832 111.97534252 61.68585576 107.94888142 61.67407227 103.92211914 C61.65854347 100.04015849 61.61828639 96.15907194 61.57421875 92.27734375 C61.57612717 91.08326401 61.57803558 89.88918427 61.58000183 88.65892029 C61.46227151 80.56284885 60.28044505 74.14445948 55.17578125 67.6953125 C47.34609943 61.09671273 40.35067696 59.42562058 30.14453125 59.72265625 C21.75070029 60.46298171 15.53955622 63.5455397 10 70 C7.56963315 74.21036472 6.62483731 77.26015898 6.61523438 82.10961914 C6.60512329 83.29427261 6.59501221 84.47892609 6.58459473 85.69947815 C6.58761597 86.96525192 6.59063721 88.2310257 6.59375 89.53515625 C6.57719411 91.53878013 6.56062191 93.54240404 6.54308319 95.54601955 C6.51095755 99.76150414 6.5051984 103.97710516 6.49468994 108.19268799 C6.48499946 111.67077251 6.46954761 115.14860192 6.43908691 118.62657166 C6.41755259 121.2307935 6.40919906 123.83516491 6.41540527 126.43946838 C6.40529419 127.6209697 6.39518311 128.80247101 6.38476562 130.01977539 C6.38271118 131.05646866 6.38065674 132.09316193 6.37854004 133.16127014 C5.94060533 136.44540972 4.92368297 138.32700933 3 141 C-0.20937409 143.32402951 -3.11506021 143.47570691 -7 143 C-10.33761045 140.84909549 -11.73470933 139.79587201 -13 136 C-13.10274955 134.23538293 -13.14793553 132.46717587 -13.16062927 130.69961548 C-13.1706749 129.6004631 -13.18072052 128.50131073 -13.19107056 127.36885071 C-13.19690155 126.16254501 -13.20273254 124.95623932 -13.20874023 123.71337891 C-13.21852402 122.44325455 -13.2283078 121.17313019 -13.23838806 119.86451721 C-13.26974276 115.6518966 -13.29003255 111.43925639 -13.30859375 107.2265625 C-13.31189107 106.50969631 -13.31518839 105.79283011 -13.31858563 105.0542407 C-13.3493585 98.29345509 -13.37606399 91.53266498 -13.39300442 84.77182961 C-13.41492412 76.12561439 -13.45693203 67.48001909 -13.52644199 58.83405173 C-13.57366945 52.75328745 -13.59793597 46.67269054 -13.6052013 40.5917486 C-13.61015846 36.96007293 -13.62524364 33.32909643 -13.6649456 29.69762039 C-13.70865384 25.64650109 -13.70491804 21.5967575 -13.69702148 17.54541016 C-13.71702209 16.34315292 -13.73702271 15.14089569 -13.75762939 13.90220642 C-13.68847045 6.01970394 -13.68847045 6.01970394 -11.74272346 3.13782883 C-7.99546842 -0.18555494 -4.85969619 -0.79522301 0 0 Z " fill="#03033E" transform="translate(992,707)"/>
<path d="M0 0 C10.3496118 8.72280156 15.56888896 19.88375016 16.79016113 33.17004395 C17.12233933 37.92347014 17.16728318 42.66999399 17.1875 47.43359375 C17.19320007 48.49282043 17.19890015 49.55204712 17.20477295 50.64337158 C17.21415598 52.86526509 17.22073 55.0871721 17.22460938 57.30908203 C17.23438789 60.70369308 17.26550371 64.09771618 17.296875 67.4921875 C17.30339959 69.66015269 17.30865219 71.82812216 17.3125 73.99609375 C17.3248468 75.00557068 17.3371936 76.01504761 17.34991455 77.05511475 C17.33286726 82.44171666 17.05394676 86.30995817 13.984375 90.94921875 C11.49981395 92.90137386 9.71969453 92.98290536 6.546875 93.38671875 C2.06533674 92.8363544 0.77585383 91.39751612 -2.015625 87.94921875 C-3.30309961 85.37426952 -3.14023588 83.53156847 -3.14160156 80.6484375 C-3.14540833 79.53968262 -3.14921509 78.43092773 -3.15313721 77.28857422 C-3.15416443 76.08346191 -3.15519165 74.87834961 -3.15625 73.63671875 C-3.17458766 71.09113696 -3.19415884 68.5455638 -3.21484375 66 C-3.24509633 61.98219835 -3.26795665 57.96470375 -3.26611328 53.94677734 C-3.26946219 50.07209197 -3.30411371 46.19868161 -3.34375 42.32421875 C-3.3366803 41.13530029 -3.3296106 39.94638184 -3.32232666 38.72143555 C-3.45396056 29.62819797 -5.38795368 22.74178422 -11.765625 16.07421875 C-20.8254924 10.1504593 -28.72160244 8.4123478 -39.56640625 10.421875 C-46.5829943 12.44565774 -52.17292802 16.04713302 -56.09814453 22.22900391 C-58.94408305 28.08037764 -58.56187089 34.07791707 -58.51953125 40.4609375 C-58.53392525 42.4263142 -58.54833505 44.39169094 -58.5636816 46.35706043 C-58.58055146 49.09048367 -58.58010696 51.8237844 -58.57897949 54.55725098 C-58.57700851 59.35376848 -58.58396812 64.15008706 -58.61888123 68.94648743 C-58.63568866 71.49508826 -58.63853073 74.04382819 -58.62586975 76.592453 C-58.63275314 77.74747818 -58.63963654 78.90250336 -58.64672852 80.0925293 C-58.64576675 81.10542526 -58.64480499 82.11832123 -58.64381409 83.16191101 C-59.07820163 86.41832902 -60.11176432 88.29617774 -62.015625 90.94921875 C-65.22499909 93.27324826 -68.13068521 93.42492566 -72.015625 92.94921875 C-74.71553162 91.14928101 -76.5575115 89.86544575 -78.015625 86.94921875 C-78.12444723 84.22969168 -78.17294953 81.53538299 -78.17675781 78.81518555 C-78.18172272 77.97436432 -78.18668762 77.13354309 -78.19180298 76.26724243 C-78.2064421 73.47763254 -78.21322985 70.68807954 -78.21875 67.8984375 C-78.22450044 65.96271258 -78.23025818 64.02698769 -78.23602295 62.09126282 C-78.24653821 58.02836847 -78.2523773 53.96549394 -78.25585938 49.90258789 C-78.26134227 44.69708582 -78.28536374 39.49184557 -78.31383133 34.28642559 C-78.33245863 30.28613013 -78.33766338 26.28589768 -78.33919525 22.28556252 C-78.34222259 20.36662173 -78.35025383 18.44768207 -78.36338043 16.5287838 C-78.38044126 13.84279884 -78.37856052 11.15745275 -78.37207031 8.47143555 C-78.3812851 7.67903976 -78.39049988 6.88664398 -78.3999939 6.07023621 C-78.36552728 1.51515873 -77.87872867 -1.45327464 -75.015625 -5.05078125 C-71.2782394 -7.54237165 -69.44230917 -7.5087141 -65.015625 -7.05078125 C-61.44691316 -4.98885885 -60.25212477 -3.63639972 -58.703125 0.19921875 C-58.47625 1.10671875 -58.249375 2.01421875 -58.015625 2.94921875 C-57.50773437 2.55089844 -56.99984375 2.15257812 -56.4765625 1.7421875 C-39.65979633 -11.20105388 -17.69613161 -12.03428639 0 0 Z " fill="#04043F" transform="translate(458.015625,756.05078125)"/>
<path d="M0 0 C7.98346961 5.64082988 14.55244603 12.97286194 16.7109375 22.6796875 C17.9208402 34.95333964 16.31235939 45.05392436 8.3984375 54.8671875 C2.09249607 61.6402357 -5.66931089 66.14533078 -14.9453125 67.02734375 C-27.21286476 67.30949745 -35.98530747 64.89167536 -45.2890625 56.6796875 C-47.63624501 53.84433047 -49.5123297 50.8978095 -51.2890625 47.6796875 C-51.8871875 46.6071875 -52.4853125 45.5346875 -53.1015625 44.4296875 C-56.73209105 36.02214771 -56.54291347 25.98052308 -53.3515625 17.4921875 C-48.1549337 6.50378526 -40.51608613 0.08276044 -29.2890625 -4.3203125 C-19.40551402 -7.38175582 -8.79584579 -5.0733718 0 0 Z " fill="#0202FD" transform="translate(493.2890625,370.3203125)"/>
<path d="M0 0 C8.47874783 6.31906678 14.03650774 14.40599297 15.8125 24.875 C16.70368615 36.18620879 13.92731692 45.91666776 6.8125 54.875 C-2.80123094 63.5479377 -10.66814422 66.47059414 -23.5 66.15234375 C-33.83117054 65.37531715 -40.8293516 61.51955276 -47.94140625 54.02734375 C-54.90933501 45.52262869 -56.92092138 36.30099477 -56.55859375 25.453125 C-55.50596309 15.30354936 -50.54399179 8.73129915 -43.1875 1.875 C-30.44687962 -8.46593071 -13.56585385 -8.84551136 0 0 Z " fill="#0101FD" transform="translate(749.1875,371.125)"/>
<path d="M0 0 C3.47806382 3.15352618 5.30631441 5.0637759 6.40625 9.69921875 C5.53125 13.01171875 5.53125 13.01171875 2.96875 16.01171875 C-0.46875 18.01171875 -0.46875 18.01171875 -3.84375 18.26171875 C-7.37279426 17.04480694 -8.64022826 16.15956697 -11.28125 13.69921875 C-18.63117953 6.86926512 -26.1527491 5.31262742 -36.0625 5.625 C-43.71615298 6.49393537 -50.11436187 9.40828932 -55.46875 15.01171875 C-62.41548204 25.2866901 -63.62560141 35.92839098 -62.46875 48.01171875 C-60.92047806 55.24316853 -57.09847728 61.23176163 -51.46875 66.01171875 C-42.0087182 71.79125185 -32.82282802 73.56057701 -21.79296875 71.515625 C-17.93914379 70.33751271 -15.02146803 68.79343894 -11.84375 66.32421875 C-9.20672502 64.30982467 -8.33517617 63.99099178 -4.84375 63.44921875 C-0.7993498 64.12328545 0.83638384 64.92054875 3.53125 68.01171875 C4.90625 71.26171875 4.90625 71.26171875 4.53125 75.01171875 C-1.14470796 82.43846971 -10.4273231 87.10633604 -19.46875 89.01171875 C-23.31921036 89.28623776 -27.17204326 89.28907115 -31.03125 89.32421875 C-32.58295898 89.36772461 -32.58295898 89.36772461 -34.16601562 89.41210938 C-47.05100424 89.51699657 -58.1647092 84.58282812 -67.7265625 75.98046875 C-79.85296694 63.25466029 -82.15751278 48.79304545 -81.83984375 31.9296875 C-81.32261437 20.21379785 -76.36671757 10.65096314 -68.46875 2.01171875 C-48.27886131 -16.15918107 -20.91672119 -16.84590362 0 0 Z " fill="#03043E" transform="translate(945.46875,759.98828125)"/>
<path d="M0 0 C7.18805467 5.00572308 12.14684356 11.38052864 14.3359375 19.9140625 C16.29612739 31.6590019 14.81678903 42.08995652 8.18359375 52.05859375 C2.76570026 58.75533012 -5.78466542 63.16268131 -14.3046875 64.08203125 C-21.56171743 64.17063967 -26.95659662 63.55098708 -33.19140625 59.74609375 C-34.23941406 59.10994141 -34.23941406 59.10994141 -35.30859375 58.4609375 C-42.89458583 53.32250136 -47.42884335 46.16791301 -49.72265625 37.34765625 C-51.35390032 28.29425164 -50.57603927 19.27970012 -45.71484375 11.33203125 C-34.81322174 -3.55191843 -16.79759226 -9.61145653 0 0 Z " fill="#FCFCFD" transform="translate(568.19140625,769.25390625)"/>
<path d="M0 0 C3.89613156 0.81169407 6.49716398 2.58920939 9 5.625 C9.68115234 9.03833008 9.68115234 9.03833008 9.5859375 12.89453125 C9.57744781 13.57553391 9.56895813 14.25653656 9.56021118 14.95817566 C9.52679302 17.11960485 9.45155986 19.2772119 9.375 21.4375 C9.34488432 22.90814898 9.31751129 24.37885684 9.29296875 25.84960938 C9.22704737 29.44263468 9.12361723 33.03344394 9 36.625 C9.86951294 36.58572388 9.86951294 36.58572388 10.7565918 36.5456543 C13.39994875 36.44129388 16.04287199 36.37655673 18.6875 36.3125 C19.59951172 36.27060547 20.51152344 36.22871094 21.45117188 36.18554688 C26.09892781 36.10104222 28.29015336 36.10738512 32.14453125 38.91796875 C34 41.625 34 41.625 34 45.25 C33.01465607 48.57553575 32.66581394 49.60954981 30 51.625 C27.82348633 51.96557617 27.82348633 51.96557617 25.33203125 51.91796875 C24.43935547 51.90830078 23.54667969 51.89863281 22.62695312 51.88867188 C21.23379883 51.8509668 21.23379883 51.8509668 19.8125 51.8125 C18.87212891 51.79896484 17.93175781 51.78542969 16.96289062 51.77148438 C14.64134962 51.73613096 12.32096347 51.68678674 10 51.625 C10.041723 58.90283935 10.11410277 66.17991731 10.20751953 73.45727539 C10.23569632 75.93148928 10.25692715 78.40579263 10.27099609 80.88012695 C10.29247022 84.44268487 10.33914675 88.00417083 10.390625 91.56640625 C10.39185364 92.66771378 10.39308228 93.7690213 10.39434814 94.90370178 C10.51636794 101.34267651 11.16095321 105.38595766 15 110.625 C18.22147332 113.09729348 21.47088007 112.85037193 25.4375 112.9375 C29.64149903 113.22563926 31.65712501 113.41798114 35.3125 115.625 C37.63333789 119.75093402 38.11035278 123.00827004 37 127.625 C34.86581154 130.70074219 34.34372506 131.40483366 31 132.625 C20.97290547 134.01146245 12.58523174 132.57813025 4.33984375 126.7421875 C-2.8986543 120.79361325 -6.08772926 114.36181222 -9 105.625 C-9.08799471 103.86091872 -9.11764257 102.09366234 -9.11352539 100.32739258 C-9.11344986 99.24649857 -9.11337433 98.16560455 -9.11329651 97.05195618 C-9.10813522 95.88625595 -9.10297394 94.72055573 -9.09765625 93.51953125 C-9.0962413 92.32518967 -9.09482635 91.13084808 -9.09336853 89.90031433 C-9.0877635 86.07935092 -9.07521011 82.25844575 -9.0625 78.4375 C-9.05748565 75.84961022 -9.05292263 73.26171952 -9.04882812 70.67382812 C-9.03779243 64.32419882 -9.02104936 57.97460357 -9 51.625 C-9.89203125 51.67140625 -10.7840625 51.7178125 -11.703125 51.765625 C-12.87359375 51.80171875 -14.0440625 51.8378125 -15.25 51.875 C-16.41015625 51.92140625 -17.5703125 51.9678125 -18.765625 52.015625 C-22 51.625 -22 51.625 -24.390625 49.828125 C-26.7309759 46.62434366 -26.55235041 44.49145287 -26 40.625 C-24.390625 38.421875 -24.390625 38.421875 -22 36.625 C-18.765625 36.234375 -18.765625 36.234375 -15.25 36.375 C-14.07953125 36.41109375 -12.9090625 36.4471875 -11.703125 36.484375 C-10.81109375 36.53078125 -9.9190625 36.5771875 -9 36.625 C-9.04713135 35.25565308 -9.04713135 35.25565308 -9.09521484 33.85864258 C-9.19774464 30.45720567 -9.27281395 27.05741953 -9.32958984 23.6550293 C-9.35968538 22.18536404 -9.40057406 20.71587729 -9.45263672 19.24682617 C-9.5257907 17.12894659 -9.55952214 15.01344755 -9.5859375 12.89453125 C-9.63306885 10.98571167 -9.63306885 10.98571167 -9.68115234 9.03833008 C-8.97649587 5.5072182 -8.70733601 4.93536327 -6.15087891 2.7097168 C-3 0.625 -3 0.625 0 0 Z " fill="#04043E" transform="translate(698,716.375)"/>
<path d="M0 0 C2.75329021 1.79562405 4.52627461 3.05254922 6 6 C6.11407607 8.74990151 6.16784574 11.47505723 6.17700195 14.22583008 C6.18357315 15.07640488 6.19014435 15.92697968 6.19691467 16.80332947 C6.21666696 19.62539757 6.22831439 22.44741242 6.23828125 25.26953125 C6.24235678 26.23232183 6.2464323 27.19511242 6.25063133 28.18707848 C6.27150004 33.2826758 6.28579844 38.37824612 6.29516602 43.47387695 C6.30623376 48.73998904 6.34063562 54.00567896 6.38033772 59.27164173 C6.40646923 63.31826062 6.41485476 67.36477838 6.41844749 71.41147423 C6.42332222 73.35275817 6.43496132 75.29403734 6.45348549 77.23523903 C6.47780391 79.95249613 6.47692539 82.66865398 6.4699707 85.38598633 C6.48278076 86.18773285 6.49559082 86.98947937 6.50878906 87.81552124 C6.47358051 91.59013894 6.15069564 93.76451489 4.09562683 96.97587585 C1.3796387 99.5991946 0.49673507 99.9531382 -3.3125 100.3125 C-7.57536111 99.95124058 -9.01992054 98.98007946 -12 96 C-13.60394776 92.79210449 -13.16526945 89.29892901 -13.17700195 85.77416992 C-13.18357315 84.92359512 -13.19014435 84.07302032 -13.19691467 83.19667053 C-13.21666696 80.37460243 -13.22831439 77.55258758 -13.23828125 74.73046875 C-13.24235678 73.76767817 -13.2464323 72.80488758 -13.25063133 71.81292152 C-13.27150004 66.7173242 -13.28579844 61.62175388 -13.29516602 56.52612305 C-13.30623376 51.26001096 -13.34063562 45.99432104 -13.38033772 40.72835827 C-13.40646923 36.68173938 -13.41485476 32.63522162 -13.41844749 28.58852577 C-13.42332222 26.64724183 -13.43496132 24.70596266 -13.45348549 22.76476097 C-13.47780391 20.04750387 -13.47692539 17.33134602 -13.4699707 14.61401367 C-13.48278076 13.81226715 -13.49559082 13.01052063 -13.50878906 12.18447876 C-13.47358051 8.40986106 -13.15069564 6.23548511 -11.09562683 3.02412415 C-7.50626088 -0.44277281 -4.9331049 -0.41805974 0 0 Z " fill="#01013C" transform="translate(644,749)"/>
<path d="M0 0 C5.34174535 4.4194296 9.07357283 10.33527991 11 17 C11 18.65 11 20.3 11 22 C-8.8 22 -28.6 22 -49 22 C-47.77084398 12.16675181 -44.51645033 6.36975954 -36.79296875 0.21484375 C-25.48188465 -7.44909341 -11.48682331 -6.76081601 0 0 Z " fill="#F9F9FA" transform="translate(328,769)"/>
<path d="M0 0 C8.18232194 6.88756626 10.35859937 11.25473812 11.58203125 22.265625 C-8.21796875 22.265625 -28.01796875 22.265625 -48.41796875 22.265625 C-45.88988947 10.88926824 -42.73210182 4.95659816 -32.921875 -1.359375 C-22.96847956 -6.82520214 -9.31840177 -6.68395862 0 0 Z " fill="#F9F9FA" transform="translate(819.41796875,768.734375)"/>
<path d="M0 0 C3.95522111 2.08955078 6.62738482 4.22290572 9 8 C9.90955744 12.96569198 9.50377381 16.99245239 7.25 21.5 C4.5585655 24.49048278 2.61281165 25.74716649 -1.3671875 26.37109375 C-5.7346323 26.4867426 -8.98636013 26.56264275 -12.5 23.75 C-16.38158319 19.48025849 -17.48240703 16.97017151 -17.31640625 11.02734375 C-16.62899904 6.62284569 -14.06488762 3.88740635 -10.75 1.125 C-7.10441212 -0.36637686 -3.84486501 -0.68604454 0 0 Z " fill="#EFEFF3" transform="translate(1093,707)"/>
<path d="M0 0 C4.10601848 1.77305344 6.66278175 4.19119988 9 8 C9.62214724 12.2772623 9.30952891 14.40387025 7.3125 18.25 C3.76760474 22.46555112 1.56686019 23.80103363 -3.9375 24.5 C-8.70314808 24.31982427 -10.76251637 22.39164952 -14 19 C-16.55550471 15.51522085 -16.57216273 12.21970013 -16 8 C-11.75149083 1.41872046 -7.93536159 -0.84093427 0 0 Z " fill="#060640" transform="translate(644,707)"/>
<path d="M0 0 C3.95522111 2.08955078 6.62738482 4.22290572 9 8 C9.90955744 12.96569198 9.50377381 16.99245239 7.25 21.5 C4.5585655 24.49048278 2.61281165 25.74716649 -1.3671875 26.37109375 C-5.7346323 26.4867426 -8.98636013 26.56264275 -12.5 23.75 C-16.38158319 19.48025849 -17.48240703 16.97017151 -17.31640625 11.02734375 C-16.62899904 6.62284569 -14.06488762 3.88740635 -10.75 1.125 C-7.10441212 -0.36637686 -3.84486501 -0.68604454 0 0 Z M-13 7 C-14.76713963 10.53427927 -14.78419127 14.162605 -14 18 C-11.36438521 21.75537021 -8.41015768 23.71221272 -3.9375 24.625 C0.46573916 23.6881406 3.69218411 21.78338531 6.375 18.125 C7.25151896 15.14483554 7.43422592 13.10161374 7 10 C5.17452064 7.07516133 3.13141589 4.56570795 0 3 C-5.86619119 2.51916466 -8.70514791 2.57500087 -13 7 Z " fill="#1D1D51" transform="translate(1093,707)"/>
<path d="M0 0 C3.0625 0.1875 3.0625 0.1875 5.0625 2.1875 C5.09487987 4.19505181 5.12114443 6.20387087 5.06640625 8.2109375 C5.06219257 10.34305915 5.38835508 12.16506523 6.0625 14.1875 C2.72712511 13.07570837 1.42542656 11.71338702 -0.9375 9.1875 C-0.9375 10.8375 -0.9375 12.4875 -0.9375 14.1875 C-1.9275 14.1875 -2.9175 14.1875 -3.9375 14.1875 C-3.96435938 12.04173363 -3.98383088 9.89587355 -4 7.75 C-4.01160156 6.55503906 -4.02320313 5.36007812 -4.03515625 4.12890625 C-3.90635264 0.24934166 -3.90635264 0.24934166 0 0 Z " fill="#41416D" transform="translate(1087.9375,712.8125)"/>
<path d="M0 0 C0.66 0 1.32 0 2 0 C2.41776675 6.05761794 2.12264203 9.19025097 -2 14 C-5.56969854 16.80476313 -9.65995488 16.14466817 -14 16 C-14 15.34 -14 14.68 -14 14 C-12.7625 13.7525 -11.525 13.505 -10.25 13.25 C-6.43248179 12.26526915 -4.29746453 11.35783277 -2 8 C-1.11243908 5.33731723 -0.55284146 2.76420732 0 0 Z " fill="#0C0C44" transform="translate(1100,717)"/>
<path d="M0 0 C0.33 0 0.66 0 1 0 C1 1.65 1 3.3 1 5 C2.94074861 4.72382467 2.94074861 4.72382467 5 4 C5.66 3.01 6.32 2.02 7 1 C6.979375 2.0725 6.95875 3.145 6.9375 4.25 C6.9857984 7.14790424 7.13155885 9.28612141 8 12 C4.66462511 10.88820837 3.36292656 9.52588702 1 7 C1 8.65 1 10.3 1 12 C0.34 12 -0.32 12 -1 12 C-1.08159574 7.83861737 -0.98248524 4.0527516 0 0 Z " fill="#1A1A4F" transform="translate(1086,715)"/>
<path d="M0 0 C2.60110143 2.00994202 3.03988801 3.15670289 3.875 6.4375 C5.17481466 10.55357975 6.61578471 11.50636768 10 14 C10 14.99 10 15.98 10 17 C5.57258356 15.64717831 3.63690779 13.76701112 1 10 C-0.60725635 6.78548731 -0.05748185 3.56387464 0 0 Z " fill="#202054" transform="translate(1076,716)"/>
<path d="M0 0 C1.32 0 2.64 0 4 0 C4 0.66 4 1.32 4 2 C3.071875 2.556875 2.14375 3.11375 1.1875 3.6875 C-2.77432632 6.56176615 -3.43226097 8.47097613 -5 13 C-5.33 13 -5.66 13 -6 13 C-6.3125 9.8125 -6.3125 9.8125 -6 6 C-3.5625 3.125 -3.5625 3.125 -1 1 C-0.67 0.67 -0.34 0.34 0 0 Z " fill="#0D0D45" transform="translate(1083,708)"/>
<path d="M0 0 C1.32 0.33 2.64 0.66 4 1 C4 2.32 4 3.64 4 5 C2.68 5 1.36 5 0 5 C0 3.35 0 1.7 0 0 Z " fill="#EDEDF1" transform="translate(1087,715)"/>
</svg>
